<?xml version="1.0" encoding="UTF-8" standalone="no"?>
<svg width="404px" height="101px" viewBox="0 0 404 101" version="1.1" xmlns="http://www.w3.org/2000/svg" xmlns:xlink="http://www.w3.org/1999/xlink">
    <!-- Generator: Sketch 43.1 (39012) - http://www.bohemiancoding.com/sketch -->
    <title>BW-Logo-Black</title>
    <desc>Created with Sketch.</desc>
    <defs></defs>
    <g id="Symbols" stroke="none" stroke-width="1" fill="none" fill-rule="evenodd">
        <g id="BW-Logo-Black" fill="#000000">
            <path d="M20.3827026,18.3087244 C22.8300192,18.3087244 24.6051939,16.9443726 24.6051939,14.2132349 C24.6051939,11.5441685 22.7688062,10.240671 20.3214896,10.240671 L12.5486489,10.240671 L12.5486489,18.3087244 L20.3827026,18.3087244 Z M21.5457481,36.4323302 C24.3003295,36.4323302 26.3179554,34.7564048 26.3179554,31.6540563 C26.3179554,28.4263481 24.1142903,26.8745653 21.4845352,26.8745653 L12.5486489,26.8745653 L12.5486489,36.4323302 L21.5457481,36.4323302 Z M0,0.000121708454 L22.6475807,0.000121708454 C26.9300846,0.000121708454 30.2355824,1.055334 32.5628737,2.97954465 C35.193829,5.15082346 36.6029265,8.37974873 36.6029265,12.226953 C36.6029265,16.6960874 34.8277518,19.4892964 31.1549765,21.226076 L31.1549765,21.413507 C35.9295843,23.026144 38.6817653,27.3699187 38.6817653,32.6459802 C38.6817653,37.6737564 36.785365,41.5830319 33.6623057,43.9429589 C31.0325506,45.8671695 27.6058273,46.7970221 23.0760711,46.7970221 L0,46.7970221 L0,0.000121708454 Z M40.7685258,46.7981175 L40.7685258,0 L52.6426323,0 L52.6426323,46.7981175 L40.7685258,46.7981175 Z M77.3103594,30.1634929 C77.3103594,24.3300067 75.4727715,20.6677993 71.9236223,20.6677993 C68.3744731,20.6677993 66.6605113,24.3300067 66.6605113,30.1634929 C66.6605113,36.0602674 68.3744731,39.7224748 71.9236223,39.7224748 C75.4727715,39.7224748 77.3103594,36.0602674 77.3103594,30.1634929 M54.9088307,30.1634929 C54.9088307,19.612587 61.6410518,12.4756033 72.0448479,12.4756033 C82.4510445,12.4756033 89.06204,19.612587 89.06204,30.1634929 C89.06204,40.7776871 82.4510445,47.8513824 72.0448479,47.8513824 C61.6410518,47.8513824 54.9088307,40.7776871 54.9088307,30.1634929 M112.813974,30.1634929 C112.813974,24.3300067 110.976386,20.6677993 107.427237,20.6677993 C103.878088,20.6677993 102.164126,24.3300067 102.164126,30.1634929 C102.164126,36.0602674 103.878088,39.7224748 107.427237,39.7224748 C110.976386,39.7224748 112.813974,36.0602674 112.813974,30.1634929 M90.4124451,30.1634929 C90.4124451,19.612587 97.1446662,12.4756033 107.548462,12.4756033 C117.954659,12.4756033 124.565654,19.612587 124.565654,30.1634929 C124.565654,40.7776871 117.954659,47.8513824 107.548462,47.8513824 C97.1446662,47.8513824 90.4124451,40.7776871 90.4124451,30.1634929 Z M126.832573,13.4071598 L137.850899,13.4071598 L137.850899,18.433719 L138.033337,18.433719 C140.237003,14.5232263 143.235235,12.4140188 147.949831,12.4140188 C152.111109,12.4140188 155.232968,14.5232263 156.824504,18.1854337 L157.008143,18.1854337 C159.701511,13.7783706 163.189448,12.4140188 167.2283,12.4140188 C174.879915,12.4140188 178.185413,18.1233624 178.185413,25.8189879 L178.185413,46.7978741 L166.616171,46.7978741 L166.616171,27.9294125 C166.616171,24.5154904 165.575551,22.2809232 162.638531,22.2809232 C159.762724,22.2809232 158.292414,25.0120609 158.292414,28.6121969 L158.292414,46.7978741 L146.725572,46.7978741 L146.725572,27.9294125 C146.725572,24.5154904 145.684953,22.2809232 142.747933,22.2809232 C139.868525,22.2809232 138.401815,25.0120609 138.401815,28.6121969 L138.401815,46.7978741 L126.832573,46.7978741 L126.832573,13.4071598 Z M203.594897,29.9161813 C203.594897,24.5159772 201.637283,21.0399838 198.146947,21.0399838 C194.597797,21.0399838 192.332919,24.5159772 192.332919,29.9161813 C192.332919,35.253097 194.597797,38.7911617 198.146947,38.7911617 C201.698496,38.7911617 203.594897,35.3151683 203.594897,29.9161813 M192.332919,42.4533691 L192.211694,42.4533691 L192.211694,46.7971438 L181.193368,46.7971438 L181.193368,0.000243416907 L192.76261,0.000243416907 L192.76261,16.882423 L192.945049,16.882423 C195.148714,13.9662885 198.085734,12.4132886 202.310626,12.4132886 C210.57317,12.4132886 215.346577,19.9847715 215.346577,30.0403239 C215.346577,41.3981568 210.144679,47.9144274 201.576071,47.9144274 C198.024521,47.9144274 194.354146,46.1764307 192.332919,42.4533691 M228.326597,26.5644522 L238.85522,26.5644522 C238.66918,22.531034 236.465515,20.4193924 233.710934,20.4193924 C230.530262,20.4193924 228.755088,22.7160309 228.326597,26.5644522 M216.818568,30.0392285 C216.818568,19.6124653 223.612002,12.351339 233.467282,12.351339 C238.364316,12.351339 242.159517,13.9031218 245.036525,16.6963308 C248.831726,20.4193924 250.545687,26.2528786 250.420861,33.1427941 L228.326597,33.1427941 C228.816301,37.301572 230.773914,39.4119965 234.26185,39.4119965 C236.283077,39.4119965 238.057051,38.4809269 238.794007,36.2463597 L249.931158,36.2463597 C247.973545,43.8799139 242.159517,47.7283352 233.896973,47.7283352 C223.675615,47.7283352 216.818568,40.7154941 216.818568,30.0392285 Z M263.218323,19.1169902 L263.400761,19.1169902 C265.788065,14.4616419 268.909924,12.7236451 272.888764,12.7236451 C273.804557,12.7236451 274.419087,12.8490049 274.785164,13.0340017 L274.785164,23.274551 L274.541513,23.274551 C267.746878,22.0343418 263.769239,25.3241213 263.769239,32.8335329 L263.769239,46.7971438 L252.199997,46.7971438 L252.199997,13.4076467 L263.218323,13.4076467 L263.218323,19.1169902 Z M297.432625,28.8608473 C297.432625,24.7020694 295.475012,21.3514357 292.109501,21.3514357 C288.864016,21.3514357 286.782777,24.3296416 286.782777,28.8608473 C286.782777,33.3299817 288.864016,36.5564728 292.109501,36.5564728 C295.475012,36.5564728 297.432625,33.2679104 297.432625,28.8608473 M276.132929,46.8590934 L287.27248,46.8590934 C287.702171,48.2867336 289.171281,49.7155908 291.925862,49.7155908 C295.65865,49.7155908 296.945322,47.3556639 296.945322,43.8796705 L296.945322,41.3980351 L296.69927,41.3980351 C294.862882,43.570531 292.413165,45.1843851 288.804003,45.1843851 C281.703304,45.1843851 275.520799,39.8450352 275.520799,29.4194891 C275.520799,19.8605072 280.601472,12.4131669 288.253087,12.4131669 C292.659217,12.4131669 295.353786,14.2132349 297.12776,17.0685152 L297.310199,17.0685152 L297.310199,13.4075249 L308.328525,13.4075249 L308.328525,42.3278877 C308.328525,47.6660205 306.493337,51.8247983 303.738756,54.3088678 C300.861749,56.9134288 296.760483,57.9698581 292.109501,57.9698581 C283.356053,57.9698581 277.234761,54.3088678 276.132929,46.8590934 M20.3827026,71.3952706 C22.8300192,71.3952706 24.6051939,70.0284847 24.6051939,67.297347 C24.6051939,64.6294977 22.7688062,63.3247831 20.3214896,63.3247831 L12.5486489,63.3247831 L12.5486489,71.3952706 L20.3827026,71.3952706 Z M21.5457481,89.5188765 C24.3003295,89.5188765 26.3179554,87.842951 26.3179554,84.7381684 C26.3179554,81.5104602 24.1142903,79.9598945 21.4845352,79.9598945 L12.5486489,79.9598945 L12.5486489,89.5188765 L21.5457481,89.5188765 Z M0,53.0842338 L22.6475807,53.0842338 C26.9300846,53.0842338 30.2355824,54.1394461 32.5628737,56.0648738 C35.193829,58.2349356 36.6029265,61.4638608 36.6029265,65.3122821 C36.6029265,69.7814165 34.8277518,72.5746256 31.1549765,74.3126223 L31.1549765,74.4976191 C35.9295843,76.1114732 38.6817653,80.456465 38.6817653,85.7313094 C38.6817653,90.7590856 36.785365,94.6695782 33.6623057,97.028288 C31.0325506,98.9512816 27.6058273,99.8823513 23.0760711,99.8823513 L0,99.8823513 L0,53.0842338 Z M61.5781585,99.8825947 L61.5781585,95.5376029 L61.39572,95.5376029 C59.0060155,99.0123792 55.94777,100.937807 51.6616652,100.937807 C44.1960893,100.937807 40.5221138,95.7250339 40.5221138,88.0281913 L40.5221138,66.4906634 L52.0913559,66.4906634 L52.0913559,85.4199792 C52.0913559,89.2075462 53.5004534,90.6972577 56.2538346,90.6972577 C59.2532677,90.6972577 61.0272422,88.6489044 61.0272422,84.799266 L61.0272422,66.4906634 L72.5964843,66.4906634 L72.5964843,99.8825947 L61.5781585,99.8825947 Z M74.4339522,89.3305935 L85.1474137,89.3305935 C85.3298522,92.0617312 86.9213882,93.6755853 89.8596084,93.6755853 C92.1232862,93.6755853 93.837248,92.9940179 93.837248,90.6973794 C93.837248,87.9662417 90.2268859,87.7812449 86.1856328,87.0960263 C80.9225219,86.2903163 74.8624426,84.5523196 74.8624426,76.1739096 C74.8624426,69.3460654 81.4122252,65.4976441 89.0638404,65.4976441 C98.5518432,65.4976441 103.507689,69.2839941 103.93618,75.8002647 L93.0426803,75.8002647 C92.7354154,73.3186293 91.0214536,72.6358449 89.1250533,72.6358449 C87.4122918,72.6358449 85.8195556,73.3186293 85.8195556,75.2416229 C85.8195556,77.1049793 88.6965629,77.6015498 92.2457121,78.0969032 C97.9373135,78.9659016 105.160438,80.3302533 105.160438,89.5800958 C105.160438,97.5860779 98.3658039,101 89.7983955,101 C80.5552443,101 74.4975656,96.9653648 74.4339522,89.3305935 Z M107.060919,63.821597 L118.630162,63.821597 L118.630162,54.4512632 L107.060919,54.4512632 L107.060919,63.821597 Z M107.060919,99.8825947 L107.060919,66.4906634 L118.630162,66.4906634 L118.630162,99.8825947 L107.060919,99.8825947 Z M132.894813,71.0838187 L133.077251,71.0838187 C135.588181,67.4228284 138.771253,65.4974007 143.11617,65.4974007 C150.338095,65.4974007 154.072083,70.6493195 154.072083,78.2840908 L154.072083,99.882473 L142.504041,99.882473 L142.504041,81.0152285 C142.504041,77.2909498 141.158557,75.2413795 138.157924,75.2413795 C135.219703,75.2413795 133.445729,77.725449 133.445729,81.5738703 L133.445729,99.882473 L121.876487,99.882473 L121.876487,66.4917588 L132.894813,66.4917588 L132.894813,71.0838187 Z M167.601339,79.6485643 L178.128761,79.6485643 C177.946323,75.6151461 175.742657,73.5035045 172.988076,73.5035045 C169.805004,73.5035045 168.029829,75.800143 167.601339,79.6485643 M156.09571,83.1233406 C156.09571,72.6977945 162.889144,65.4354511 172.744424,65.4354511 C177.639058,65.4354511 181.434259,66.988451 184.311266,69.78166 C188.106467,73.5035045 189.820429,79.3394248 189.698003,86.2281233 L167.601339,86.2281233 C168.091042,90.3856841 170.051056,92.4973257 173.538992,92.4973257 C175.560219,92.4973257 177.334193,91.565039 178.068748,89.3304718 L189.2083,89.3304718 C187.248286,96.9664601 181.434259,100.814881 173.171715,100.814881 C162.950357,100.814881 156.09571,93.7996062 156.09571,83.1233406 Z M190.856248,89.3305935 L201.567309,89.3305935 C201.752148,92.0617312 203.343684,93.6755853 206.281904,93.6755853 C208.545582,93.6755853 210.259543,92.9940179 210.259543,90.6973794 C210.259543,87.9662417 206.646781,87.7812449 202.607928,87.0960263 C197.344817,86.2903163 191.284738,84.5523196 191.284738,76.1739096 C191.284738,69.3460654 197.834521,65.4976441 205.484936,65.4976441 C214.971738,65.4976441 219.929985,69.2839941 220.358475,75.8002647 L209.462575,75.8002647 C209.157711,73.3186293 207.443749,72.6358449 205.544948,72.6358449 C203.830987,72.6358449 202.241851,73.3186293 202.241851,75.2416229 C202.241851,77.1049793 205.118858,77.6015498 208.668008,78.0969032 C214.359609,78.9659016 221.582734,80.3302533 221.582734,89.5800958 C221.582734,97.5860779 214.788099,101 206.220691,101 C196.97754,101 190.917461,96.9653648 190.856248,89.3305935 Z M222.812993,89.3305935 L233.524054,89.3305935 C233.708893,92.0617312 235.300429,93.6755853 238.23865,93.6755853 C240.502327,93.6755853 242.216289,92.9940179 242.216289,90.6973794 C242.216289,87.9662417 238.603527,87.7812449 234.564674,87.0960263 C229.301563,86.2903163 223.241484,84.5523196 223.241484,76.1739096 C223.241484,69.3460654 229.791266,65.4976441 237.441681,65.4976441 C246.928484,65.4976441 251.886731,69.2839941 252.315221,75.8002647 L241.419321,75.8002647 C241.114457,73.3186293 239.400495,72.6358449 237.501694,72.6358449 C235.787732,72.6358449 234.198597,73.3186293 234.198597,75.2416229 C234.198597,77.1049793 237.075604,77.6015498 240.624753,78.0969032 C246.316355,78.9659016 253.539479,80.3302533 253.539479,89.5800958 C253.539479,97.5860779 246.744845,101 238.177437,101 C228.934286,101 222.874206,96.9653648 222.812993,89.3305935 Z M290.939494,66.4911502 L302.507536,66.4911502 L292.592243,99.8830815 L281.451491,99.8830815 L276.984148,80.3951239 L276.861722,80.3951239 L272.394379,99.8830815 L261.436066,99.8830815 L251.45956,66.4911502 L263.272454,66.4911502 L267.740997,84.7376816 L267.864623,84.7376816 L272.085914,66.4911502 L282.124833,66.4911502 L286.348525,84.8618242 L286.470951,84.8618242 L290.939494,66.4911502 Z M312.060713,79.6485643 L322.586935,79.6485643 C322.403296,75.6151461 320.199631,73.5035045 317.445049,73.5035045 C314.264378,73.5035045 312.486803,75.800143 312.060713,79.6485643 M300.552683,83.1233406 C300.552683,72.6977945 307.346117,65.4354511 317.201398,65.4354511 C322.096031,65.4354511 325.891232,66.988451 328.768239,69.78166 C332.563441,73.5035045 334.277402,79.3394248 334.154976,86.2281233 L312.060713,86.2281233 C312.548015,90.3856841 314.508029,92.4973257 317.995965,92.4973257 C320.017192,92.4973257 321.791167,91.565039 322.525722,89.3304718 L333.665273,89.3304718 C331.70766,96.9664601 325.891232,100.814881 317.631088,100.814881 C307.40733,100.814881 300.552683,93.7996062 300.552683,83.1233406 M347.01101,79.6485643 L357.538432,79.6485643 C357.355994,75.6151461 355.152329,73.5035045 352.397747,73.5035045 C349.214675,73.5035045 347.439501,75.800143 347.01101,79.6485643 M335.505382,83.1233406 C335.505382,72.6977945 342.298816,65.4354511 352.151695,65.4354511 C357.048729,65.4354511 360.84393,66.988451 363.720938,69.78166 C367.516139,73.5035045 369.2301,79.3394248 369.107675,86.2281233 L347.01101,86.2281233 C347.500714,90.3856841 349.460727,92.4973257 352.948664,92.4973257 C354.96749,92.4973257 356.743865,91.565039 357.47842,89.3304718 L368.617971,89.3304718 C366.657958,96.9664601 360.84393,100.814881 352.581386,100.814881 C342.360028,100.814881 335.505382,93.7996062 335.505382,83.1233406 Z M370.88501,53.0848423 L382.270613,53.0848423 L382.270613,76.6707236 L390.043454,66.4910285 L402.773341,66.4910285 L392.369545,78.8420024 L404,99.8829598 L390.899235,99.8829598 L384.656717,87.7157657 L382.270613,90.5089747 L382.270613,99.8829598 L370.88501,99.8829598 L370.88501,53.0848423 Z" id="Fill-5"></path>
        </g>
    </g>
</svg>